<?xml version="1.0" encoding="UTF-8"?><svg id="Calque_2" xmlns="http://www.w3.org/2000/svg" viewBox="0 0 216.9 26.11"><defs><style>.cls-1,.cls-2{fill:none;}.cls-3{fill:#f3bb44;}.cls-4{fill:#fff;}.cls-5{fill:#949dcb;}.cls-2{stroke:#fff;stroke-width:.36px;}</style></defs><g id="Calque_1-2"><line class="cls-2" x1="108.45" x2="108.45" y2="26.11"/><rect class="cls-1" x="0" width="216.9" height="26.11"/><path class="cls-5" d="m0,11.97C0,7.3,3.78,3.52,8.45,3.52c2.18,0,4.16.82,5.66,2.17-2.65.67-4.9,2.91-4.9,6.21s2.3,5.62,4.99,6.25c-1.51,1.4-3.53,2.26-5.74,2.26C3.78,20.42,0,16.64,0,11.97"/><path class="cls-3" d="m15.38,7.14c.96,1.37,1.52,3.04,1.52,4.83s-.54,3.39-1.45,4.74c-2.18-.15-4.34-1.88-4.34-4.8s2.11-4.59,4.27-4.77"/><path class="cls-4" d="m30.49,13.71c0,1.84-1.28,3.06-2.85,3.06-.93,0-1.72-.37-2.19-.81v-4.4c.47-.52,1.24-.89,2.19-.89,1.57,0,2.85,1.22,2.85,3.04m1.78,0c0-3.04-2.42-4.6-4.3-4.6-1.2,0-2.17.33-2.71.91l-.06-.7h-1.51v13.26h1.77v-4.85c.45.29,1.24.58,2.19.58,2.62,0,4.64-1.9,4.64-4.61"/><path class="cls-4" d="m39.63,9.33h-3.1v-2.7l-1.74.91v1.78h-1.73v1.42h1.73v4.83c0,1.75,1.28,2.68,2.87,2.68.35,0,.6-.02.79-.08l.35-1.57c-.27.1-.6.14-.97.14-.72,0-1.3-.39-1.3-1.11v-4.89h2.79l.31-1.42Z"/><path class="cls-4" d="m43.05,9.33h-1.78v8.78h1.78v-8.78Zm.19-2.75c0-.37-.72-1.09-1.09-1.09-.35,0-1.07.72-1.07,1.09,0,.35.72,1.07,1.07,1.07.37,0,1.09-.72,1.09-1.07"/><path class="cls-4" d="m52.29,9.78c-.74-.41-1.65-.66-2.81-.66-2.4,0-4.77,1.73-4.77,4.61s2.36,4.6,4.77,4.6c.87,0,1.67-.16,2.31-.45l.37-1.73c-.99.47-1.71.62-2.52.62-1.61,0-3.14-1.16-3.14-3.05s1.49-3.06,3.1-3.06c.85,0,1.57.16,2.37.66l.33-1.55Z"/><path class="cls-4" d="m71.38,13.73c0,1.82-1.34,3.05-2.87,3.05s-2.89-1.22-2.89-3.05,1.34-3.06,2.89-3.06,2.87,1.22,2.87,3.06m1.78,0c0-2.73-2.04-4.62-4.65-4.62s-4.67,1.88-4.67,4.62,2.05,4.6,4.67,4.6,4.65-1.88,4.65-4.6"/><path class="cls-4" d="m81.82,13.73c0,1.82-1.34,3.05-2.87,3.05s-2.89-1.22-2.89-3.05,1.34-3.06,2.89-3.06,2.87,1.22,2.87,3.06m1.78,0c0-2.73-2.04-4.62-4.65-4.62s-4.67,1.88-4.67,4.62,2.06,4.6,4.67,4.6,4.65-1.88,4.65-4.6"/><path class="cls-4" d="m92.25,13.73c0,1.82-1.34,3.05-2.87,3.05s-2.89-1.22-2.89-3.05,1.34-3.06,2.89-3.06,2.87,1.22,2.87,3.06m1.79,0c0-2.73-2.04-4.62-4.65-4.62s-4.67,1.88-4.67,4.62,2.06,4.6,4.67,4.6,4.65-1.88,4.65-4.6"/><path class="cls-4" d="m62.79,16.58v1.54h-7.41v-.44c.99-1.04,5.04-5.21,5.04-7.54,0-1.34-.84-1.97-1.93-1.97-.95,0-1.62.35-2.39.86l-.37-1.58c.86-.56,1.73-.85,2.77-.85,2.13,0,3.71,1.25,3.71,3.59,0,2.1-2.43,5.07-3.72,6.39h4.32Z"/><path class="cls-4" d="m20.42,11.91c0,3.06-2.4,4.81-4.65,4.81s-4.65-1.75-4.65-4.81,2.37-4.79,4.65-4.79,4.65,1.73,4.65,4.79m1.9,0c0-3.98-3.26-6.42-6.55-6.42s-6.55,2.44-6.55,6.42,3.26,6.44,6.55,6.44,6.55-2.42,6.55-6.44"/><path class="cls-4" d="m204.17,16c-.51,0-.89.4-.89.89s.4.89.89.89.89-.4.89-.89-.4-.89-.89-.89m-2.71-4.28h-1.28v5.92h1.28v-2.98c0-.6.18-1.04.54-1.3.37-.27.79-.39,1.28-.35v-1.39c-.89,0-1.5.37-1.82,1.1v-1Zm-2.76,0h-1.28v5.92h1.28v-5.92Zm-.07-1.12c.33-.33.33-.83.01-1.15-.32-.33-.84-.33-1.16,0-.32.32-.32.82,0,1.15.33.32.83.32,1.15,0m-6.8,5.42c-.36-.35-.53-.8-.53-1.34s.18-.98.53-1.34c.35-.35.79-.53,1.31-.53s.96.18,1.31.53c.35.36.53.81.53,1.34s-.18.98-.53,1.34c-.36.36-.79.53-1.31.53s-.96-.18-1.31-.53m1.31,1.78c.88,0,1.61-.3,2.21-.9.6-.6.91-1.34.91-2.21s-.31-1.61-.91-2.21c-.6-.6-1.34-.9-2.21-.9s-1.61.3-2.21.9c-.6.6-.91,1.34-.91,2.21s.31,1.61.91,2.21c.6.6,1.35.9,2.21.9m-6.4-1.57l-1.66-4.5h-1.4l2.31,5.92h1.48l2.31-5.92h-1.4l-1.65,4.5Zm-8.02-2.04c.18-.9.84-1.46,1.79-1.46.84,0,1.52.5,1.69,1.46h-3.48Zm4.72,1.04c.03-.22.05-.4.05-.53,0-.86-.28-1.61-.84-2.21-.56-.6-1.27-.91-2.13-.91-.91,0-1.67.3-2.25.9-.58.59-.88,1.33-.88,2.21s.3,1.65.89,2.24c.59.58,1.37.88,2.33.88,1.15,0,2.01-.43,2.59-1.29l-1.05-.62c-.34.49-.85.73-1.53.73-.98,0-1.7-.5-1.89-1.4h4.71Zm-8.21-3.5h-1.28v5.92h1.28v-2.98c0-.6.18-1.04.54-1.3.37-.27.79-.39,1.28-.35v-1.39c-.89,0-1.5.37-1.82,1.1v-1Zm-10.13,2.46c.18-.9.84-1.46,1.79-1.46.84,0,1.52.5,1.69,1.46h-3.48Zm4.72,1.04c.04-.22.05-.4.05-.53,0-.86-.28-1.61-.84-2.21-.56-.6-1.27-.91-2.13-.91-.91,0-1.67.3-2.25.9-.58.59-.88,1.33-.88,2.21s.3,1.65.89,2.24c.59.58,1.37.88,2.33.88,1.15,0,2.01-.43,2.59-1.29l-1.05-.62c-.34.49-.85.73-1.53.73-.98,0-1.71-.5-1.89-1.4h4.71Zm-9.87-1.87c0-.42.38-.63.86-.63.53,0,.91.23,1.11.67l1.08-.6c-.41-.77-1.21-1.23-2.19-1.23-.61,0-1.14.17-1.55.5-.42.33-.62.77-.62,1.31-.02,1.24,1.17,1.6,2.06,1.82.63.15,1.12.38,1.12.76,0,.44-.33.66-1.01.66s-1.11-.28-1.31-.85l-1.1.64c.38.86,1.24,1.39,2.41,1.39.66,0,1.21-.17,1.64-.49.44-.32.66-.77.66-1.34.02-1.27-1.16-1.65-2.07-1.85-.62-.18-1.11-.38-1.11-.77m-10.08,2.69c-.36-.37-.53-.82-.53-1.36s.18-.99.53-1.35c.36-.37.8-.54,1.34-.54s.98.18,1.34.54c.36.35.53.81.53,1.35s-.18.99-.53,1.36c-.35.36-.8.53-1.34.53s-.98-.18-1.34-.53m3.21-3.48c-.48-.66-1.17-.99-2.07-.99-.82,0-1.5.3-2.08.9-.58.6-.86,1.34-.86,2.21s.28,1.61.86,2.21c.58.6,1.27.9,2.08.9.9,0,1.59-.33,2.07-1.01v.85h1.28v-5.92h-1.28v.84Zm-8.3,3.66l-1.66-4.5h-1.4l2.31,5.92h1.48l2.31-5.92h-1.4l-1.64,4.5Zm-8.97-4.65c-.84,0-1.44.31-1.84.91v-.76h-1.28v5.92h1.28v-3.17c0-1.15.6-1.7,1.5-1.7.82,0,1.33.49,1.33,1.37v3.5h1.28v-3.63c0-1.51-.91-2.44-2.27-2.44m-10.66,4.06c-.56-.57-.84-1.28-.84-2.13s.28-1.56.84-2.12c.57-.57,1.27-.85,2.1-.85s1.53.28,2.08.85c.57.56.85,1.27.85,2.12s-.28,1.56-.85,2.13c-.56.56-1.25.84-2.08.84s-1.53-.28-2.1-.84m5.14.92c.84-.84,1.25-1.86,1.25-3.05s-.41-2.21-1.25-3.04c-.83-.84-1.85-1.25-3.04-1.25s-2.21.41-3.05,1.25c-.83.83-1.24,1.85-1.24,3.04s.41,2.21,1.24,3.05c.84.83,1.86,1.24,3.05,1.24s2.21-.42,3.04-1.24"/></g></svg>