<?xml version="1.0" encoding="utf-8"?>
<!-- Generator: Adobe Illustrator 27.5.0, SVG Export Plug-In . SVG Version: 6.00 Build 0)  -->
<svg version="1.1" id="Calque_2_00000183215243068464370000000003311304835798146238_"
	 xmlns="http://www.w3.org/2000/svg" xmlns:xlink="http://www.w3.org/1999/xlink" x="0px" y="0px" viewBox="0 0 216.9 26.1"
	 style="enable-background:new 0 0 216.9 26.1;" xml:space="preserve">
<style type="text/css">
	.st0{fill:none;}
	.st1{fill:#949DCB;}
	.st2{fill:#F3BB44;}
	.st3{fill:#FFFFFF;}
</style>
<rect class="st0" width="216.9" height="26.1"/>
<g>
	<path class="st1" d="M61.4,12c0-4.7,3.8-8.5,8.5-8.5c2.2,0,4.2,0.8,5.7,2.2c-2.6,0.7-4.9,2.9-4.9,6.2s2.3,5.6,5,6.2
		c-1.5,1.4-3.5,2.3-5.7,2.3C65.2,20.4,61.4,16.6,61.4,12"/>
	<path class="st2" d="M76.8,7.1c1,1.4,1.5,3,1.5,4.8s-0.5,3.4-1.4,4.7c-2.2-0.1-4.3-1.9-4.3-4.8S74.6,7.3,76.8,7.1"/>
	<path class="st3" d="M91.9,13.7c0,1.8-1.3,3.1-2.9,3.1c-0.9,0-1.7-0.4-2.2-0.8v-4.4c0.5-0.5,1.2-0.9,2.2-0.9
		C90.6,10.7,91.9,11.9,91.9,13.7 M93.7,13.7c0-3-2.4-4.6-4.3-4.6c-1.2,0-2.2,0.3-2.7,0.9l-0.1-0.7h-1.5v13.3h1.8v-4.9
		c0.4,0.3,1.2,0.6,2.2,0.6C91.7,18.3,93.7,16.4,93.7,13.7"/>
	<path class="st3" d="M101.1,9.3H98V6.6l-1.7,0.9v1.8h-1.7v1.4h1.7v4.8c0,1.8,1.3,2.7,2.9,2.7c0.3,0,0.6,0,0.8-0.1l0.3-1.6
		c-0.3,0.1-0.6,0.1-1,0.1c-0.7,0-1.3-0.4-1.3-1.1v-4.9h2.8L101.1,9.3L101.1,9.3z"/>
	<path class="st3" d="M104.5,9.3h-1.8v8.8h1.8C104.5,18.1,104.5,9.3,104.5,9.3z M104.7,6.6c0-0.4-0.7-1.1-1.1-1.1
		c-0.3,0-1.1,0.7-1.1,1.1c0,0.3,0.7,1.1,1.1,1.1C103.9,7.7,104.7,6.9,104.7,6.6"/>
	<path class="st3" d="M113.7,9.8c-0.7-0.4-1.7-0.7-2.8-0.7c-2.4,0-4.8,1.7-4.8,4.6s2.4,4.6,4.8,4.6c0.9,0,1.7-0.2,2.3-0.5l0.4-1.7
		c-1,0.5-1.7,0.6-2.5,0.6c-1.6,0-3.1-1.2-3.1-3.1s1.5-3.1,3.1-3.1c0.8,0,1.6,0.2,2.4,0.7L113.7,9.8L113.7,9.8z"/>
	<path class="st3" d="M132.8,13.7c0,1.8-1.3,3-2.9,3c-1.5,0-2.9-1.2-2.9-3.1s1.3-3.1,2.9-3.1S132.8,11.9,132.8,13.7 M134.6,13.7
		c0-2.7-2-4.6-4.7-4.6s-4.7,1.9-4.7,4.6s2.1,4.6,4.7,4.6S134.6,16.4,134.6,13.7"/>
	<path class="st3" d="M143.2,13.7c0,1.8-1.3,3-2.9,3c-1.5,0-2.9-1.2-2.9-3.1s1.3-3.1,2.9-3.1S143.2,11.9,143.2,13.7 M145,13.7
		c0-2.7-2-4.6-4.7-4.6s-4.7,1.9-4.7,4.6s2.1,4.6,4.7,4.6S145,16.4,145,13.7"/>
	<path class="st3" d="M153.7,13.7c0,1.8-1.3,3-2.9,3c-1.5,0-2.9-1.2-2.9-3.1s1.3-3.1,2.9-3.1S153.7,11.9,153.7,13.7 M155.5,13.7
		c0-2.7-2-4.6-4.7-4.6s-4.7,1.9-4.7,4.6s2.1,4.6,4.7,4.6S155.5,16.4,155.5,13.7"/>
	<path class="st3" d="M124.2,16.6v1.5h-7.4v-0.4c1-1,5-5.2,5-7.5c0-1.3-0.8-2-1.9-2c-0.9,0-1.6,0.4-2.4,0.9l-0.4-1.6
		c0.9-0.6,1.7-0.8,2.8-0.8c2.1,0,3.7,1.2,3.7,3.6c0,2.1-2.4,5.1-3.7,6.4L124.2,16.6L124.2,16.6z"/>
	<path class="st3" d="M81.8,11.9c0,3.1-2.4,4.8-4.7,4.8s-4.7-1.8-4.7-4.8s2.4-4.8,4.7-4.8S81.8,8.9,81.8,11.9 M83.8,11.9
		c0-4-3.3-6.4-6.6-6.4s-6.6,2.4-6.6,6.4s3.3,6.4,6.6,6.4S83.8,15.9,83.8,11.9"/>
</g>
</svg>
